<svg width="152" height="40" viewBox="0 0 152 40" fill="none" xmlns="http://www.w3.org/2000/svg">
<rect x="0.5" y="0.5" width="151" height="39" rx="19.5" stroke="#F8F7E5"/>
<path d="M29.454 17.19C30.138 17.19 30.732 17.262 31.236 17.406C31.752 17.55 32.148 17.754 32.424 18.018C32.712 18.27 32.856 18.576 32.856 18.936C32.856 19.176 32.784 19.404 32.64 19.62C32.496 19.824 32.286 19.926 32.01 19.926C31.818 19.926 31.656 19.902 31.524 19.854C31.404 19.794 31.296 19.722 31.2 19.638C31.104 19.554 30.99 19.476 30.858 19.404C30.738 19.332 30.552 19.278 30.3 19.242C30.06 19.194 29.88 19.17 29.76 19.17C29.148 19.17 28.626 19.302 28.194 19.566C27.774 19.83 27.45 20.19 27.222 20.646C26.994 21.09 26.88 21.606 26.88 22.194C26.88 22.77 26.994 23.286 27.222 23.742C27.462 24.186 27.786 24.54 28.194 24.804C28.614 25.068 29.094 25.2 29.634 25.2C29.934 25.2 30.192 25.182 30.408 25.146C30.624 25.11 30.804 25.056 30.948 24.984C31.116 24.888 31.266 24.786 31.398 24.678C31.53 24.57 31.728 24.516 31.992 24.516C32.304 24.516 32.544 24.618 32.712 24.822C32.88 25.014 32.964 25.254 32.964 25.542C32.964 25.842 32.796 26.118 32.46 26.37C32.124 26.61 31.68 26.808 31.128 26.964C30.588 27.108 30 27.18 29.364 27.18C28.416 27.18 27.594 26.964 26.898 26.532C26.202 26.088 25.662 25.488 25.278 24.732C24.906 23.976 24.72 23.13 24.72 22.194C24.72 21.21 24.918 20.346 25.314 19.602C25.722 18.846 26.28 18.258 26.988 17.838C27.708 17.406 28.53 17.19 29.454 17.19ZM43.8636 22.194C43.8636 23.178 43.6416 24.048 43.1976 24.804C42.7656 25.548 42.1776 26.13 41.4336 26.55C40.7016 26.97 39.8796 27.18 38.9676 27.18C38.0556 27.18 37.2276 26.97 36.4836 26.55C35.7516 26.13 35.1636 25.548 34.7196 24.804C34.2876 24.048 34.0716 23.178 34.0716 22.194C34.0716 21.21 34.2876 20.346 34.7196 19.602C35.1636 18.846 35.7516 18.258 36.4836 17.838C37.2276 17.406 38.0556 17.19 38.9676 17.19C39.8796 17.19 40.7016 17.406 41.4336 17.838C42.1776 18.258 42.7656 18.846 43.1976 19.602C43.6416 20.346 43.8636 21.21 43.8636 22.194ZM41.7036 22.194C41.7036 21.582 41.5776 21.054 41.3256 20.61C41.0856 20.154 40.7556 19.8 40.3356 19.548C39.9276 19.296 39.4716 19.17 38.9676 19.17C38.4636 19.17 38.0016 19.296 37.5816 19.548C37.1736 19.8 36.8436 20.154 36.5916 20.61C36.3516 21.054 36.2316 21.582 36.2316 22.194C36.2316 22.794 36.3516 23.322 36.5916 23.778C36.8436 24.222 37.1736 24.57 37.5816 24.822C38.0016 25.074 38.4636 25.2 38.9676 25.2C39.4716 25.2 39.9276 25.074 40.3356 24.822C40.7556 24.57 41.0856 24.222 41.3256 23.778C41.5776 23.322 41.7036 22.794 41.7036 22.194ZM50.902 17.19C51.79 17.19 52.462 17.376 52.918 17.748C53.386 18.12 53.704 18.618 53.872 19.242C54.052 19.854 54.142 20.538 54.142 21.294V25.902C54.142 26.214 54.04 26.478 53.836 26.694C53.632 26.898 53.374 27 53.062 27C52.75 27 52.492 26.898 52.288 26.694C52.084 26.478 51.982 26.214 51.982 25.902V21.294C51.982 20.898 51.928 20.544 51.82 20.232C51.724 19.908 51.544 19.65 51.28 19.458C51.016 19.266 50.638 19.17 50.146 19.17C49.666 19.17 49.258 19.266 48.922 19.458C48.598 19.65 48.346 19.908 48.166 20.232C47.998 20.544 47.914 20.898 47.914 21.294V25.902C47.914 26.214 47.812 26.478 47.608 26.694C47.404 26.898 47.146 27 46.834 27C46.522 27 46.264 26.898 46.06 26.694C45.856 26.478 45.754 26.214 45.754 25.902V18.468C45.754 18.156 45.856 17.898 46.06 17.694C46.264 17.478 46.522 17.37 46.834 17.37C47.146 17.37 47.404 17.478 47.608 17.694C47.812 17.898 47.914 18.156 47.914 18.468V19.242L47.644 19.188C47.752 18.984 47.908 18.768 48.112 18.54C48.316 18.3 48.556 18.078 48.832 17.874C49.108 17.67 49.42 17.508 49.768 17.388C50.116 17.256 50.494 17.19 50.902 17.19ZM61.6246 17.19C62.5126 17.19 63.1846 17.376 63.6406 17.748C64.1086 18.12 64.4266 18.618 64.5946 19.242C64.7746 19.854 64.8646 20.538 64.8646 21.294V25.902C64.8646 26.214 64.7626 26.478 64.5586 26.694C64.3546 26.898 64.0966 27 63.7846 27C63.4726 27 63.2146 26.898 63.0106 26.694C62.8066 26.478 62.7046 26.214 62.7046 25.902V21.294C62.7046 20.898 62.6506 20.544 62.5426 20.232C62.4466 19.908 62.2666 19.65 62.0026 19.458C61.7386 19.266 61.3606 19.17 60.8686 19.17C60.3886 19.17 59.9806 19.266 59.6446 19.458C59.3206 19.65 59.0686 19.908 58.8886 20.232C58.7206 20.544 58.6366 20.898 58.6366 21.294V25.902C58.6366 26.214 58.5346 26.478 58.3306 26.694C58.1266 26.898 57.8686 27 57.5566 27C57.2446 27 56.9866 26.898 56.7826 26.694C56.5786 26.478 56.4766 26.214 56.4766 25.902V18.468C56.4766 18.156 56.5786 17.898 56.7826 17.694C56.9866 17.478 57.2446 17.37 57.5566 17.37C57.8686 17.37 58.1266 17.478 58.3306 17.694C58.5346 17.898 58.6366 18.156 58.6366 18.468V19.242L58.3666 19.188C58.4746 18.984 58.6306 18.768 58.8346 18.54C59.0386 18.3 59.2786 18.078 59.5546 17.874C59.8306 17.67 60.1426 17.508 60.4906 17.388C60.8386 17.256 61.2166 17.19 61.6246 17.19ZM71.7353 27.18C70.7153 27.18 69.8273 26.97 69.0713 26.55C68.3273 26.118 67.7513 25.536 67.3433 24.804C66.9473 24.072 66.7493 23.244 66.7493 22.32C66.7493 21.24 66.9653 20.322 67.3973 19.566C67.8413 18.798 68.4173 18.21 69.1253 17.802C69.8333 17.394 70.5833 17.19 71.3753 17.19C71.9873 17.19 72.5633 17.316 73.1033 17.568C73.6553 17.82 74.1413 18.168 74.5613 18.612C74.9813 19.044 75.3113 19.548 75.5513 20.124C75.8033 20.7 75.9293 21.312 75.9293 21.96C75.9173 22.248 75.8033 22.482 75.5873 22.662C75.3713 22.842 75.1193 22.932 74.8313 22.932H67.9553L67.4153 21.132H74.0213L73.6253 21.492V21.006C73.6013 20.658 73.4753 20.346 73.2473 20.07C73.0313 19.794 72.7553 19.578 72.4193 19.422C72.0953 19.254 71.7473 19.17 71.3753 19.17C71.0153 19.17 70.6793 19.218 70.3673 19.314C70.0553 19.41 69.7853 19.572 69.5573 19.8C69.3293 20.028 69.1493 20.334 69.0173 20.718C68.8853 21.102 68.8193 21.588 68.8193 22.176C68.8193 22.824 68.9513 23.376 69.2153 23.832C69.4913 24.276 69.8393 24.618 70.2593 24.858C70.6913 25.086 71.1473 25.2 71.6273 25.2C72.0713 25.2 72.4253 25.164 72.6893 25.092C72.9533 25.02 73.1633 24.936 73.3193 24.84C73.4873 24.732 73.6373 24.642 73.7693 24.57C73.9853 24.462 74.1893 24.408 74.3813 24.408C74.6453 24.408 74.8613 24.498 75.0293 24.678C75.2093 24.858 75.2993 25.068 75.2993 25.308C75.2993 25.632 75.1313 25.926 74.7953 26.19C74.4833 26.454 74.0453 26.688 73.4813 26.892C72.9173 27.084 72.3353 27.18 71.7353 27.18ZM82.1005 17.19C82.7845 17.19 83.3785 17.262 83.8825 17.406C84.3985 17.55 84.7945 17.754 85.0705 18.018C85.3585 18.27 85.5025 18.576 85.5025 18.936C85.5025 19.176 85.4305 19.404 85.2865 19.62C85.1425 19.824 84.9325 19.926 84.6565 19.926C84.4645 19.926 84.3025 19.902 84.1705 19.854C84.0505 19.794 83.9425 19.722 83.8465 19.638C83.7505 19.554 83.6365 19.476 83.5045 19.404C83.3845 19.332 83.1985 19.278 82.9465 19.242C82.7065 19.194 82.5265 19.17 82.4065 19.17C81.7945 19.17 81.2725 19.302 80.8405 19.566C80.4205 19.83 80.0965 20.19 79.8685 20.646C79.6405 21.09 79.5265 21.606 79.5265 22.194C79.5265 22.77 79.6405 23.286 79.8685 23.742C80.1085 24.186 80.4325 24.54 80.8405 24.804C81.2605 25.068 81.7405 25.2 82.2805 25.2C82.5805 25.2 82.8385 25.182 83.0545 25.146C83.2705 25.11 83.4505 25.056 83.5945 24.984C83.7625 24.888 83.9125 24.786 84.0445 24.678C84.1765 24.57 84.3745 24.516 84.6385 24.516C84.9505 24.516 85.1905 24.618 85.3585 24.822C85.5265 25.014 85.6105 25.254 85.6105 25.542C85.6105 25.842 85.4425 26.118 85.1065 26.37C84.7705 26.61 84.3265 26.808 83.7745 26.964C83.2345 27.108 82.6465 27.18 82.0105 27.18C81.0625 27.18 80.2405 26.964 79.5445 26.532C78.8485 26.088 78.3085 25.488 77.9245 24.732C77.5525 23.976 77.3665 23.13 77.3665 22.194C77.3665 21.21 77.5645 20.346 77.9605 19.602C78.3685 18.846 78.9265 18.258 79.6345 17.838C80.3545 17.406 81.1765 17.19 82.1005 17.19ZM87.276 17.55H91.542C91.83 17.55 92.07 17.646 92.262 17.838C92.454 18.03 92.55 18.27 92.55 18.558C92.55 18.834 92.454 19.068 92.262 19.26C92.07 19.44 91.83 19.53 91.542 19.53H87.276C86.988 19.53 86.748 19.434 86.556 19.242C86.364 19.05 86.268 18.81 86.268 18.522C86.268 18.246 86.364 18.018 86.556 17.838C86.748 17.646 86.988 17.55 87.276 17.55ZM89.202 15.3C89.514 15.3 89.766 15.408 89.958 15.624C90.162 15.828 90.264 16.086 90.264 16.398V24.408C90.264 24.576 90.294 24.714 90.354 24.822C90.426 24.93 90.516 25.008 90.624 25.056C90.744 25.104 90.87 25.128 91.002 25.128C91.146 25.128 91.278 25.104 91.398 25.056C91.518 24.996 91.656 24.966 91.812 24.966C91.98 24.966 92.13 25.044 92.262 25.2C92.406 25.356 92.478 25.572 92.478 25.848C92.478 26.184 92.292 26.46 91.92 26.676C91.56 26.892 91.17 27 90.75 27C90.498 27 90.216 26.982 89.904 26.946C89.604 26.898 89.316 26.796 89.04 26.64C88.776 26.472 88.554 26.22 88.374 25.884C88.194 25.548 88.104 25.086 88.104 24.498V16.398C88.104 16.086 88.206 15.828 88.41 15.624C88.626 15.408 88.89 15.3 89.202 15.3ZM103.659 14.382C103.971 14.382 104.223 14.49 104.415 14.706C104.607 14.91 104.703 15.168 104.703 15.48V21.996C104.703 22.992 104.487 23.874 104.055 24.642C103.635 25.41 103.053 26.01 102.309 26.442C101.565 26.874 100.701 27.09 99.7173 27.09C98.7333 27.09 97.8633 26.874 97.1073 26.442C96.3633 26.01 95.7753 25.41 95.3433 24.642C94.9233 23.874 94.7133 22.992 94.7133 21.996V15.48C94.7133 15.168 94.8213 14.91 95.0373 14.706C95.2533 14.49 95.5293 14.382 95.8653 14.382C96.1413 14.382 96.3873 14.49 96.6033 14.706C96.8313 14.91 96.9453 15.168 96.9453 15.48V21.996C96.9453 22.596 97.0713 23.118 97.3233 23.562C97.5873 23.994 97.9293 24.33 98.3493 24.57C98.7813 24.81 99.2373 24.93 99.7173 24.93C100.233 24.93 100.713 24.81 101.157 24.57C101.601 24.33 101.961 23.994 102.237 23.562C102.513 23.118 102.651 22.596 102.651 21.996V15.48C102.651 15.168 102.741 14.91 102.921 14.706C103.101 14.49 103.347 14.382 103.659 14.382ZM106.667 25.506C106.547 25.338 106.493 25.122 106.505 24.858C106.517 24.594 106.673 24.366 106.973 24.174C107.165 24.054 107.369 24.006 107.585 24.03C107.801 24.042 108.011 24.15 108.215 24.354C108.563 24.702 108.929 24.972 109.313 25.164C109.697 25.356 110.177 25.452 110.753 25.452C110.933 25.44 111.131 25.416 111.347 25.38C111.563 25.332 111.749 25.236 111.905 25.092C112.073 24.936 112.157 24.702 112.157 24.39C112.157 24.126 112.067 23.916 111.887 23.76C111.707 23.604 111.467 23.472 111.167 23.364C110.879 23.256 110.555 23.154 110.195 23.058C109.823 22.95 109.439 22.83 109.043 22.698C108.659 22.566 108.305 22.398 107.981 22.194C107.657 21.978 107.393 21.696 107.189 21.348C106.985 21 106.883 20.562 106.883 20.034C106.883 19.434 107.051 18.924 107.387 18.504C107.723 18.084 108.155 17.76 108.683 17.532C109.223 17.304 109.787 17.19 110.375 17.19C110.747 17.19 111.137 17.238 111.545 17.334C111.953 17.418 112.343 17.562 112.715 17.766C113.087 17.958 113.399 18.216 113.651 18.54C113.783 18.72 113.861 18.936 113.885 19.188C113.909 19.44 113.795 19.668 113.543 19.872C113.363 20.016 113.153 20.082 112.913 20.07C112.673 20.046 112.475 19.962 112.319 19.818C112.115 19.554 111.839 19.344 111.491 19.188C111.155 19.032 110.765 18.954 110.321 18.954C110.141 18.954 109.943 18.978 109.727 19.026C109.523 19.062 109.343 19.152 109.187 19.296C109.031 19.428 108.953 19.644 108.953 19.944C108.953 20.22 109.043 20.442 109.223 20.61C109.403 20.766 109.643 20.898 109.943 21.006C110.255 21.102 110.585 21.198 110.933 21.294C111.293 21.39 111.659 21.504 112.031 21.636C112.403 21.768 112.745 21.942 113.057 22.158C113.369 22.374 113.621 22.656 113.813 23.004C114.005 23.34 114.101 23.772 114.101 24.3C114.101 24.912 113.921 25.434 113.561 25.866C113.201 26.298 112.751 26.628 112.211 26.856C111.671 27.072 111.119 27.18 110.555 27.18C109.847 27.18 109.139 27.06 108.431 26.82C107.723 26.568 107.135 26.13 106.667 25.506ZM119.994 30.276C119.814 30.276 119.652 30.228 119.508 30.132C118.596 29.52 117.822 28.806 117.186 27.99C116.562 27.186 116.088 26.304 115.764 25.344C115.44 24.384 115.278 23.382 115.278 22.338C115.278 21.294 115.44 20.292 115.764 19.332C116.088 18.372 116.562 17.49 117.186 16.686C117.822 15.87 118.596 15.156 119.508 14.544C119.652 14.448 119.814 14.4 119.994 14.4C120.282 14.4 120.504 14.508 120.66 14.724C120.816 14.94 120.894 15.144 120.894 15.336C120.894 15.612 120.768 15.852 120.516 16.056C119.832 16.596 119.262 17.202 118.806 17.874C118.35 18.534 118.008 19.242 117.78 19.998C117.564 20.754 117.456 21.534 117.456 22.338C117.456 23.142 117.558 23.928 117.762 24.696C117.978 25.464 118.314 26.184 118.77 26.856C119.226 27.516 119.808 28.104 120.516 28.62C120.768 28.8 120.894 29.04 120.894 29.34C120.894 29.556 120.804 29.766 120.624 29.97C120.456 30.174 120.246 30.276 119.994 30.276ZM122.342 30.276C122.054 30.276 121.832 30.168 121.676 29.952C121.52 29.736 121.442 29.532 121.442 29.34C121.442 29.052 121.568 28.812 121.82 28.62C122.516 28.08 123.086 27.48 123.53 26.82C123.986 26.148 124.322 25.434 124.538 24.678C124.766 23.922 124.88 23.142 124.88 22.338C124.88 21.534 124.772 20.748 124.556 19.98C124.352 19.212 124.022 18.492 123.566 17.82C123.122 17.148 122.54 16.56 121.82 16.056C121.568 15.876 121.442 15.636 121.442 15.336C121.442 15.12 121.526 14.91 121.694 14.706C121.874 14.502 122.09 14.4 122.342 14.4C122.522 14.4 122.684 14.448 122.828 14.544C123.752 15.156 124.526 15.87 125.15 16.686C125.774 17.49 126.248 18.372 126.572 19.332C126.896 20.292 127.058 21.294 127.058 22.338C127.058 23.382 126.896 24.384 126.572 25.344C126.248 26.304 125.774 27.186 125.15 27.99C124.526 28.806 123.752 29.52 122.828 30.132C122.684 30.228 122.522 30.276 122.342 30.276Z" fill="#F8F7E5"/>
</svg>
