<svg width="77" height="63" viewBox="0 0 77 63" fill="none" xmlns="http://www.w3.org/2000/svg">
<path d="M40.6406 40.1044C40.6575 40.2166 40.727 40.314 40.8275 40.3666C40.928 40.4193 41.0476 40.4208 41.1495 40.3708L55.9915 33.0849C56.0857 33.0386 56.1547 32.9532 56.1801 32.8514C56.3675 32.1 56.4281 31.3547 56.4281 30.5509C56.4281 29.6624 56.305 28.852 56.1858 28.1353C56.1669 28.0215 56.094 27.924 55.9903 27.8735L41.1482 20.659C41.0472 20.6099 40.929 20.6114 40.8292 20.6629C40.7294 20.7144 40.6598 20.81 40.6414 20.9208L40.6392 20.934C40.5828 21.2736 40.5211 21.6447 40.518 22.0214C40.4585 22.4013 40.4585 22.8419 40.4585 23.2465V23.265C40.4585 23.4162 40.473 23.5818 40.4866 23.7363L40.4895 23.7693C40.5044 23.9398 40.5179 24.104 40.5179 24.265C40.5179 24.2846 40.5195 24.3041 40.5227 24.3234C40.5485 24.479 40.5623 24.636 40.5767 24.8014L40.5786 24.8229C40.5931 24.9889 40.6094 25.1706 40.644 25.3375C40.6673 25.4496 40.7431 25.5436 40.8476 25.5902L51.8285 30.486L40.8427 35.5853C40.7406 35.6327 40.6669 35.7256 40.644 35.8358C40.5843 36.1231 40.5211 36.4961 40.518 36.8789C40.4585 37.2554 40.4585 37.6291 40.4585 38.0348V38.0512C40.4585 38.6467 40.5203 39.3086 40.6406 40.1044Z" fill="#FD5B4F"/>
<path fill-rule="evenodd" clip-rule="evenodd" d="M35.7154 13.035C35.8159 13.0876 35.8853 13.185 35.9023 13.2972C36.0225 14.093 36.0844 14.7549 36.0844 15.3505V15.367C36.0844 15.7726 36.0844 16.1464 36.0249 16.5228C36.0218 16.9056 35.9585 17.2785 35.8988 17.5658C35.8759 17.676 35.8023 17.7689 35.7002 17.8163L24.7144 22.9156L35.6952 27.8114C35.7998 27.858 35.8755 27.9521 35.8988 28.0642C35.9335 28.231 35.9498 28.4127 35.9643 28.5788L35.9662 28.6002C35.9806 28.7655 35.9943 28.9226 36.0202 29.0782C36.0234 29.0975 36.025 29.1171 36.025 29.1366C36.025 29.2977 36.0384 29.4618 36.0533 29.6324L36.0562 29.6652C36.0698 29.8197 36.0844 29.9855 36.0844 30.1366V30.1553C36.0844 30.5598 36.0844 31.0004 36.0249 31.3802C36.0218 31.7568 35.9601 32.128 35.9037 32.4675L35.9015 32.4808C35.883 32.5916 35.8134 32.6872 35.7137 32.7387C35.6139 32.7903 35.4956 32.7917 35.3946 32.7426L20.5526 25.5281C20.4488 25.4777 20.3759 25.3801 20.357 25.2663C20.2379 24.5497 20.1147 23.7393 20.1147 22.8507C20.1147 22.0469 20.1754 21.3017 20.3628 20.5502C20.3882 20.4484 20.4571 20.363 20.5513 20.3168L35.3934 13.0308C35.4952 12.9808 35.6148 12.9824 35.7154 13.035Z" fill="#FD5B4F"/>
<path fill-rule="evenodd" clip-rule="evenodd" d="M68.5322 0H8.01026C3.58632 0 0 3.58631 0 8.01025V45.3914C0 49.8154 3.58631 53.4017 8.01025 53.4017H68.5322C72.9561 53.4017 76.5424 49.8154 76.5424 45.3914V8.01026C76.5424 3.58632 72.9561 0 68.5322 0ZM4.45014 8.01025C4.45014 6.04406 6.04406 4.45014 8.01026 4.45014H68.5322C70.4984 4.45014 72.0923 6.04406 72.0923 8.01026V45.3914C72.0923 47.3576 70.4984 48.9516 68.5322 48.9516H8.01025C6.04406 48.9516 4.45014 47.3576 4.45014 45.3914V8.01025Z" fill="#FD5B4F"/>
<path d="M8.45527 57.8518C7.2264 57.8518 6.2302 58.848 6.2302 60.0769C6.2302 61.3058 7.2264 62.302 8.45527 62.302H68.0872C69.316 62.302 70.3122 61.3058 70.3122 60.0769C70.3122 58.848 69.316 57.8518 68.0872 57.8518H8.45527Z" fill="#FD5B4F"/>
</svg>
