<svg width="144" height="144" viewBox="0 0 144 144" fill="none" xmlns="http://www.w3.org/2000/svg">
<g clip-path="url(#clip0_12_101)">
<path d="M28 77.942L29.6781 85.1116L54.4543 80.1027L34.9591 96.3571L39.5491 102.103L59.7353 86.8795L49.2227 109.911L55.8856 113.103L67.4347 90.7098L68.0269 116H75.4302L76.0224 90.808L87.6209 113.348L94.2838 110.156L83.8205 87.2232L104.105 102.545L108.695 96.75L89.2989 80.5938L114.223 85.6518L115.901 78.4821L91.3225 72.2946L116 66.058L114.371 58.8884L89.5457 63.8973L109.041 47.6429L104.451 41.8973L84.2647 57.1205L94.7773 34.0893L88.1144 30.8973L76.5653 53.3393L75.9731 28H68.5698L67.9776 53.192L56.4285 30.6518L49.7162 33.8438L60.1795 56.7768L39.8946 41.4554L35.3045 47.25L54.7011 63.4063L29.7768 58.3482L28.1481 65.5179L52.6775 71.7054L28 77.942Z" fill="#F9AF42"/>
</g>
<g clip-path="url(#clip1_12_101)">
<path d="M64.0551 143.791C64.4341 143.882 64.8 143.935 65.1658 143.974C65.9107 144.039 66.6032 143.974 67.2435 143.778C67.8707 143.582 68.3934 143.268 68.7854 142.837C69.1775 142.406 69.3996 141.883 69.4649 141.256C69.5172 140.668 69.4127 140.158 69.1513 139.727C68.89 139.309 68.5502 138.943 68.1321 138.629C67.7139 138.316 67.2827 138.028 66.8515 137.78C66.4203 137.532 66.0413 137.297 65.7147 137.087C65.388 136.878 65.1266 136.643 64.9437 136.395C64.7608 136.147 64.6824 135.859 64.7085 135.546C64.7346 135.31 64.813 135.088 64.9698 134.853C65.1266 134.618 65.3619 134.435 65.6755 134.304C66.0936 134.343 66.5248 134.422 66.9691 134.566C67.2827 134.657 67.5833 134.801 67.8707 134.971L68.4326 137.218L69.5564 137.323C69.6479 137.035 69.7263 136.709 69.8047 136.343C69.8831 135.977 69.9484 135.611 69.9876 135.271C70.0268 134.931 70.053 134.657 70.066 134.448C69.7655 134.2 69.3996 133.991 68.9815 133.795C68.5633 133.612 68.1321 133.468 67.6747 133.35C67.2174 133.233 66.8123 133.167 66.4334 133.128C65.7408 133.063 65.0874 133.128 64.4864 133.311C63.8853 133.494 63.3756 133.808 62.9836 134.252C62.5786 134.683 62.3564 135.245 62.2911 135.911C62.2388 136.539 62.3303 137.061 62.5786 137.493C62.8268 137.924 63.1666 138.303 63.5847 138.616C64.0029 138.93 64.4341 139.217 64.9045 139.479C65.3227 139.727 65.7147 139.962 66.0544 140.171C66.4072 140.38 66.6816 140.616 66.8776 140.838C67.0867 141.073 67.1651 141.334 67.1521 141.635C67.1259 141.857 67.0475 142.092 66.9038 142.314C66.76 142.536 66.564 142.706 66.3158 142.824C65.7147 142.798 65.1266 142.654 64.5778 142.419C64.4341 142.367 64.3165 142.262 64.1858 142.184L63.8853 140.393L62.6308 140.276C62.5263 140.589 62.4479 140.916 62.3825 141.256C62.3172 141.596 62.2649 141.935 62.2127 142.262C62.1735 142.589 62.1343 142.876 62.1081 143.124C62.3564 143.255 62.6439 143.373 62.9836 143.49C63.3234 143.608 63.6631 143.699 64.0421 143.791H64.0551Z" fill="#F8F7E5"/>
<path d="M59.155 132.253C58.6715 131.978 58.1358 131.808 57.5216 131.756L55.0911 132.409L55.2479 133.246C55.5746 133.18 55.8882 133.141 56.1757 133.128C56.4632 133.128 56.7376 133.141 56.9989 133.193C57.4824 133.298 57.8614 133.507 58.1489 133.821C58.4363 134.134 58.6193 134.513 58.6977 134.958C58.7761 135.415 58.763 135.898 58.6454 136.421C58.5539 136.813 58.4102 137.192 58.1881 137.584C57.979 137.976 57.6784 138.303 57.3126 138.564C56.9859 138.368 56.6853 138.094 56.4371 137.754C56.1757 137.414 55.9536 137.022 55.7706 136.578L53.8498 137.349C53.9282 137.767 54.085 138.12 54.3202 138.433C54.5554 138.747 54.8298 138.995 55.1695 139.204C55.5093 139.413 55.8752 139.557 56.2803 139.649C56.9859 139.805 57.6523 139.779 58.3057 139.583C58.9459 139.374 59.5078 139.021 59.9652 138.499C60.4225 137.976 60.7361 137.323 60.9191 136.526C61.0498 135.911 61.0759 135.336 60.9714 134.788C60.8668 134.239 60.6708 133.755 60.3572 133.324C60.0436 132.893 59.6646 132.54 59.1812 132.266L59.155 132.253Z" fill="#F8F7E5"/>
<path d="M48.3877 133.52L47.1986 133.102C47.0548 133.285 46.9111 133.494 46.7543 133.729C46.5975 133.964 46.4537 134.213 46.3231 134.474C46.1924 134.735 46.0748 134.984 45.9703 135.232C45.8657 135.48 45.7743 135.689 45.722 135.885C45.8919 136.16 46.1401 136.369 46.4537 136.539C46.7804 136.695 47.1332 136.774 47.5252 136.761L49.5768 135.689L49.1848 136.8L49.6813 137.767C50.1387 137.898 50.6091 138.002 51.0926 138.081C51.5891 138.159 52.0465 138.185 52.4908 138.172L52.6345 137.427L51.5761 136.905L53.3271 131.926C53.4185 131.926 53.4969 131.926 53.5884 131.926C53.9543 131.926 54.281 131.9 54.5815 131.834L54.7122 131.312L53.1964 130.776L51.4977 130.175L49.9688 129.639L49.6552 130.345C49.7859 130.489 49.9427 130.632 50.1387 130.789C50.3347 130.946 50.5307 131.09 50.7398 131.22C50.8574 131.286 50.9488 131.351 51.0534 131.403L49.9819 134.461C49.9819 134.461 49.9557 134.474 49.9427 134.487C49.5899 134.709 49.2632 134.879 48.9496 135.01C48.636 135.14 48.3223 135.232 48.0218 135.297L48.3485 133.52H48.3877Z" fill="#F8F7E5"/>
<path d="M46.7935 130.11C46.7412 129.391 46.5321 128.764 46.1532 128.215C45.7742 127.666 45.2777 127.235 44.6766 126.934C44.0755 126.634 43.4613 126.503 42.821 126.529C42.1808 126.555 41.5797 126.764 41.0047 127.143C40.4298 127.522 39.9593 128.11 39.5673 128.881C39.1753 129.665 39.0054 130.41 39.0446 131.103C39.0838 131.795 39.2929 132.409 39.6588 132.945C40.0247 133.481 40.5082 133.899 41.1093 134.2C41.7103 134.5 42.3376 134.644 42.9909 134.618C43.6443 134.605 44.2715 134.409 44.8465 134.03C45.4345 133.651 45.918 133.089 46.2969 132.318C46.6759 131.56 46.8457 130.828 46.7935 130.11ZM44.6766 129.966C44.5851 130.397 44.4283 130.841 44.1931 131.299C43.971 131.743 43.7357 132.135 43.4613 132.475C43.1869 132.815 42.9125 133.063 42.6381 133.207C42.5205 133.233 42.3898 133.233 42.233 133.207C42.0893 133.18 41.9325 133.128 41.8018 133.063C41.4751 132.906 41.2661 132.645 41.1876 132.305C41.1092 131.965 41.1223 131.573 41.2268 131.129C41.3314 130.685 41.5013 130.227 41.7365 129.757C41.8802 129.482 42.037 129.195 42.22 128.921C42.4029 128.646 42.5989 128.411 42.808 128.228C43.017 128.045 43.2392 127.927 43.4875 127.888C43.6704 127.914 43.8403 127.98 43.9971 128.058C44.3499 128.228 44.572 128.489 44.6635 128.829C44.7681 129.169 44.7681 129.561 44.6635 129.992L44.6766 129.966Z" fill="#F8F7E5"/>
<path d="M39.3844 125.575C39.4759 125.601 39.5674 125.628 39.6719 125.654C40.0247 125.732 40.3514 125.784 40.665 125.797L40.9133 125.327L39.5674 124.465L38.914 124.046L37.1107 122.897L36.6403 123.511C36.771 123.772 36.9539 124.06 37.2022 124.334C37.2545 124.399 37.3067 124.438 37.3459 124.491L32.1844 132.605L32.4719 133.625C32.877 133.86 33.3082 134.069 33.7786 134.252C34.249 134.435 34.6933 134.566 35.1245 134.657L35.4512 133.951L34.5235 133.207L39.3844 125.562V125.575Z" fill="#F8F7E5"/>
<path d="M34.9416 122.596C35.033 122.635 35.1245 122.661 35.216 122.701C35.5688 122.818 35.8824 122.883 36.196 122.923L36.4835 122.465L35.5688 121.773L35.3858 121.629L35.216 121.498L34.6018 121.028L32.9031 119.734L32.3804 120.309C32.4849 120.584 32.6417 120.871 32.8639 121.185C32.9162 121.25 32.9554 121.289 32.9946 121.355L27.1666 128.999L27.3626 130.031C27.7546 130.306 28.1597 130.541 28.604 130.763C29.0483 130.985 29.4795 131.155 29.9107 131.286L30.2897 130.606L29.4272 129.796L34.9154 122.596H34.9416Z" fill="#F8F7E5"/>
<path d="M27.8853 115.54C27.7938 114.913 27.5063 114.324 27.0098 113.802L24.8668 113.344C24.9713 113.122 25.0497 112.9 25.0758 112.665C25.102 112.404 25.102 112.155 25.0497 111.933C25.0105 111.711 24.919 111.528 24.8014 111.397L22.776 110.653L22.3448 111.228C22.4624 111.319 22.5669 111.411 22.6715 111.489C22.776 111.567 22.8544 111.646 22.9328 111.737C23.0112 111.816 23.0504 111.92 23.0504 112.012C23.0504 112.116 23.0112 112.195 22.9328 112.26L16.1771 118.375V119.434C16.5169 119.773 16.8827 120.087 17.2747 120.388C17.6668 120.688 18.0718 120.936 18.4639 121.132L18.9604 120.531L18.2678 119.577L20.0972 117.918C20.2541 118.205 20.4239 118.493 20.6722 118.754C21.0904 119.225 21.5477 119.564 22.0443 119.787C22.5408 120.009 23.0504 120.139 23.5731 120.152C24.0958 120.166 24.6054 120.074 25.102 119.891C25.5985 119.708 26.0559 119.421 26.461 119.042C26.9836 118.571 27.3626 118.022 27.6239 117.408C27.8722 116.794 27.9637 116.167 27.8722 115.527L27.8853 115.54ZM25.4548 116.481C25.2718 116.833 25.0236 117.147 24.6969 117.448C24.331 117.774 23.9259 118.036 23.4816 118.219C23.0374 118.401 22.6061 118.48 22.188 118.428C21.9005 118.166 21.6653 117.866 21.5085 117.539C21.404 117.317 21.3256 117.095 21.2733 116.873L24.4747 113.972C24.4747 113.972 24.5009 113.972 24.5139 113.985C24.8668 114.155 25.1281 114.338 25.311 114.547C25.5593 114.821 25.69 115.122 25.7031 115.461C25.7161 115.801 25.6377 116.141 25.4548 116.494V116.481Z" fill="#F8F7E5"/>
<path d="M20.1887 112.168C20.8813 111.685 21.3909 111.123 21.6915 110.483C21.992 109.842 22.1096 109.176 22.0443 108.51C21.9789 107.843 21.7568 107.229 21.3648 106.667C20.9858 106.118 20.5154 105.7 19.9405 105.413C19.3655 105.125 18.7383 105.008 18.0588 105.073C17.3793 105.125 16.6737 105.4 15.955 105.896C15.2363 106.393 14.7136 106.955 14.4131 107.582C14.1125 108.209 13.9818 108.849 14.0472 109.49C14.1125 110.143 14.3346 110.731 14.7136 111.293C15.0925 111.842 15.576 112.273 16.151 112.573C16.739 112.874 17.3662 113.005 18.0588 112.966C18.7513 112.926 19.457 112.652 20.1626 112.168H20.1887ZM16.5561 111.162C16.4385 111.123 16.3209 111.058 16.2032 110.966C16.0856 110.875 15.9811 110.757 15.8896 110.626C15.6806 110.326 15.6283 109.999 15.7198 109.66C15.8112 109.32 16.0203 108.98 16.3209 108.653C16.6214 108.314 17.0003 108 17.4316 107.699C17.6929 107.517 17.9673 107.36 18.2548 107.203C18.5553 107.046 18.8297 106.942 19.1042 106.876C19.3786 106.811 19.6268 106.824 19.8621 106.902C20.0058 107.02 20.1234 107.151 20.2279 107.294C20.4501 107.608 20.5154 107.948 20.437 108.287C20.3586 108.64 20.1757 108.967 19.8882 109.307C19.6007 109.646 19.2348 109.947 18.8167 110.248C18.4116 110.522 18.0065 110.744 17.6014 110.914C17.1964 111.084 16.8435 111.162 16.5299 111.149L16.5561 111.162Z" fill="#F8F7E5"/>
<path d="M17.7582 101.427C17.7059 101.218 17.6275 100.983 17.4969 100.722C17.3662 100.46 17.2486 100.212 17.0918 99.9637C16.935 99.7154 16.7912 99.5194 16.6344 99.3626L13.9034 99.4671L15.8896 97.494C15.8373 97.298 15.7589 97.0758 15.6544 96.8145C15.5368 96.5662 15.4061 96.3179 15.2624 96.0697C15.1187 95.8214 14.9618 95.6254 14.792 95.4555L8.23226 96.2657C8.23226 96.2657 8.11466 96.1611 8.06239 96.1089C7.89251 95.9651 7.72264 95.8345 7.5397 95.7038L6.92554 96.0435L7.29142 96.8145L7.4613 97.1673L7.80104 97.8729L8.54587 99.441L9.2907 99.1012V98.2388L13.7074 96.9582L13.7727 97.0889L12.5183 97.9775L9.31683 100.891L10.4929 102.865L12.5183 100.852L15.4584 100.63L15.5237 100.774L14.2693 101.728L11.8257 103.936C11.8257 103.936 11.7996 103.91 11.7735 103.897C11.6036 103.753 11.4206 103.609 11.2508 103.479L10.6366 103.832L11.0286 104.655L11.499 105.661L12.27 107.281L13.0148 106.942V105.975L17.7713 101.388L17.7582 101.427Z" fill="#F8F7E5"/>
<path d="M7.27835 93.1035L12.3745 91.7314C12.4268 91.8098 12.4529 91.8621 12.5052 91.9405C12.7143 92.241 12.9234 92.4893 13.1455 92.6984L13.642 92.5154L13.3546 91.457L13.054 90.3332L12.5313 88.3993L11.7734 88.543C11.682 88.8305 11.6297 89.131 11.6166 89.4708C11.6166 89.4969 11.6166 89.5361 11.6166 89.5623L7.44822 90.686C7.25221 90.5031 7.06927 90.3202 6.92553 90.1242C6.74259 89.8889 6.61192 89.6668 6.55965 89.4577C6.46818 89.1441 6.52045 88.8697 6.70339 88.6214C6.8994 88.3732 7.25221 88.1771 7.76182 88.0465L11.1985 87.1187C11.4076 87.4193 11.6166 87.6675 11.8388 87.8766L12.3353 87.6937L11.9172 86.1517L11.7604 85.5768L11.2377 83.6428L10.4798 83.7866C10.3883 84.0741 10.3491 84.4007 10.3361 84.7928C10.3361 84.8581 10.3361 84.9104 10.3361 84.9757L7.017 85.8773C6.61192 85.9819 6.29831 86.0864 6.05003 86.1648C5.81482 86.2432 5.63188 86.3216 5.48814 86.3869C5.35747 86.4523 5.25293 86.5176 5.18759 86.596C4.99159 86.8051 4.84786 87.0272 4.75639 87.2886C4.66492 87.5499 4.61264 87.7982 4.58651 88.0595C4.57344 88.3078 4.5865 88.543 4.62571 88.7521C4.78251 89.0265 5.01772 89.3401 5.33133 89.6799C5.64495 90.0196 6.01083 90.3594 6.44205 90.7252C6.52045 90.7906 6.62499 90.8559 6.70339 90.9212L6.01083 91.1042L5.47507 92.0581C5.61881 92.5024 5.80176 92.9597 6.01083 93.404C6.23297 93.8483 6.46818 94.2534 6.72952 94.6192L7.42209 94.3187L7.25221 93.1427L7.27835 93.1035Z" fill="#F8F7E5"/>
<path d="M10.0617 77.7888C10.2054 77.6712 10.3361 77.5143 10.4668 77.3314C10.5975 77.1485 10.7281 76.9394 10.8457 76.7434C10.9633 76.5474 11.0417 76.3514 11.094 76.1946C10.9241 75.9724 10.6759 75.7764 10.3884 75.5804C10.0878 75.3844 9.80036 75.2537 9.53902 75.1753C9.40834 75.2799 9.27768 75.4236 9.13394 75.5804C8.9902 75.7503 8.87259 75.9332 8.74192 76.1292C8.62431 76.3252 8.53285 76.5212 8.49365 76.7042C8.63739 76.9133 8.85952 77.1093 9.16007 77.3053C9.46061 77.5013 9.76116 77.6581 10.0617 77.7757V77.7888Z" fill="#F8F7E5"/>
<path d="M0.222156 67.1913C0.418163 67.8185 0.731776 68.3412 1.16299 68.7332C1.59421 69.1252 2.11689 69.3604 2.74412 69.4127C3.33214 69.465 3.84175 69.3604 4.27297 69.0991C4.70419 68.8377 5.057 68.498 5.37062 68.0799C5.68423 67.6617 5.9717 67.2305 6.23304 66.7993C6.48132 66.3681 6.71652 65.9891 6.9256 65.6624C7.13467 65.3358 7.36988 65.0744 7.61816 64.9045C7.86643 64.7347 8.15391 64.6432 8.46752 64.6693C8.70273 64.6955 8.92487 64.7739 9.16008 64.9307C9.39529 65.0875 9.57824 65.3227 9.70891 65.6363C9.66971 66.0544 9.5913 66.4857 9.44756 66.9299C9.35609 67.2436 9.21235 67.5441 9.04248 67.8316L6.79493 68.3935L6.69039 69.5172C6.97787 69.6087 7.30455 69.6871 7.67043 69.7655C8.03631 69.8439 8.40219 69.9093 8.74193 69.9485C9.08168 69.9877 9.35609 70.0138 9.56517 70.0269C9.81344 69.7263 10.0225 69.3604 10.2185 68.9423C10.4015 68.5241 10.5452 68.0929 10.6628 67.6356C10.7804 67.1782 10.8457 66.7731 10.8849 66.3942C10.9503 65.7016 10.8849 65.0483 10.702 64.4472C10.5191 63.8461 10.2055 63.3365 9.76117 62.9314C9.32995 62.5263 8.76807 62.3042 8.10164 62.2388C7.47442 62.1866 6.95174 62.278 6.52052 62.5263C6.0893 62.7746 5.71036 63.1143 5.39675 63.5325C5.08313 63.9506 4.79565 64.3949 4.53431 64.8523C4.28603 65.2704 4.05083 65.6494 3.84175 66.0022C3.63268 66.355 3.39748 66.6294 3.17533 66.8254C2.94013 67.0345 2.67878 67.1129 2.36517 67.0867C2.14303 67.0606 1.90781 66.9822 1.68567 66.8515C1.46353 66.7078 1.29366 66.5118 1.17605 66.2635C1.21525 65.6624 1.34593 65.0744 1.58114 64.5256C1.64648 64.3818 1.73795 64.2642 1.81635 64.1336L3.60654 63.8461L3.72415 62.5917C3.41054 62.4871 3.08386 62.4087 2.74412 62.3434C2.40437 62.278 2.06462 62.2258 1.75101 62.1735C1.42433 62.1343 1.13686 62.0951 0.888583 62.069C0.757912 62.3172 0.640299 62.6178 0.522695 62.9445C0.405091 63.2711 0.313626 63.624 0.222156 64.0029C0.130686 64.3818 0.0784183 64.7477 0.0392168 65.1136C-0.0261189 65.8584 0.0392188 66.551 0.235226 67.1782L0.222156 67.1913Z" fill="#F8F7E5"/>
<path d="M5.51438 59.8998C6.03706 60.3571 6.69042 60.6707 7.48752 60.8537C8.10167 60.9844 8.67663 61.0105 9.22545 60.906C9.77427 60.8014 10.2578 60.6054 10.689 60.2918C11.1202 59.9913 11.473 59.5992 11.7474 59.1158C12.0218 58.6323 12.1917 58.0965 12.244 57.4824L11.6037 55.0519L10.7674 55.2087C10.8327 55.5354 10.8719 55.849 10.885 56.1364C10.885 56.4239 10.8719 56.6983 10.8196 56.9597C10.7151 57.4432 10.506 57.8221 10.1924 58.1096C9.8788 58.3971 9.49986 58.58 9.04251 58.6584C8.58516 58.7368 8.10167 58.7237 7.57899 58.6061C7.18697 58.5147 6.80803 58.3709 6.41601 58.1488C6.03706 57.9397 5.69732 57.6392 5.43598 57.2733C5.63198 56.9466 5.9064 56.6461 6.24614 56.3978C6.58589 56.1364 6.9779 55.9143 7.42219 55.7314L6.65122 53.8105C6.23307 53.8889 5.88026 54.0457 5.56664 54.2809C5.25303 54.5161 5.00476 54.7905 4.79569 55.1303C4.58661 55.47 4.44287 55.8359 4.3514 56.241C4.19459 56.9466 4.22073 57.613 4.41674 58.2664C4.62581 58.9067 4.97863 59.4686 5.50132 59.9259L5.51438 59.8998Z" fill="#F8F7E5"/>
<path d="M7.13464 51.5368L12.1132 53.2878C12.1132 53.3793 12.1132 53.4577 12.1132 53.5491C12.1132 53.915 12.1394 54.2417 12.2047 54.5422L12.7274 54.6729L13.0933 53.6275L13.8512 51.4715L14.3869 49.9426L13.6813 49.629C13.5375 49.7597 13.3938 49.9165 13.237 50.1125C13.0802 50.3085 12.9364 50.5045 12.8058 50.7136C12.7404 50.8181 12.6751 50.9226 12.6228 51.0272L9.56513 49.9557C9.56513 49.9557 9.55206 49.9295 9.53899 49.9165C9.31685 49.5637 9.14698 49.237 9.0163 48.9234C8.88563 48.6098 8.79417 48.2961 8.72883 47.9956L10.506 48.3223L10.9241 47.1332C10.7412 46.9894 10.5321 46.8457 10.2969 46.6889C10.0617 46.5321 9.8134 46.3883 9.55206 46.2577C9.29072 46.127 9.04244 46.0094 8.79416 45.9049C8.54589 45.8003 8.33681 45.7088 8.14081 45.6566C7.8664 45.8264 7.65732 46.0747 7.48745 46.3883C7.33064 46.715 7.25224 47.0678 7.26531 47.4598L8.33682 49.5114L7.22611 49.1194L6.25914 49.6029C6.12846 50.0602 6.02393 50.5306 5.94553 51.0141C5.86712 51.4976 5.84099 51.968 5.85406 52.4123L6.59888 52.556L7.12157 51.4976L7.13464 51.5368Z" fill="#F8F7E5"/>
<path d="M17.0918 44.6244C17.3923 44.0233 17.523 43.4091 17.4969 42.7688C17.4707 42.1285 17.2617 41.5275 16.8827 40.9525C16.5038 40.3775 15.9157 39.9071 15.1448 39.5151C14.3607 39.1231 13.6159 38.9402 12.9234 38.9794C12.2308 39.0186 11.6166 39.2276 11.0809 39.5935C10.5451 39.9594 10.127 40.4429 9.82644 41.044C9.5259 41.6451 9.38216 42.2723 9.4083 42.9256C9.43443 43.579 9.61737 44.2062 9.99631 44.7812C10.3753 45.3692 10.9372 45.8527 11.7081 46.2316C12.466 46.6106 13.1978 46.7804 13.9165 46.7282C14.6352 46.6759 15.2624 46.4668 15.8112 46.0879C16.36 45.7089 16.7912 45.2124 17.0918 44.6113V44.6244ZM15.2101 44.6113C14.8704 44.7158 14.4784 44.7158 14.0471 44.6113C13.6159 44.5198 13.1716 44.363 12.7143 44.1278C12.27 43.9057 11.878 43.6574 11.5382 43.3961C11.1985 43.1217 10.9502 42.8472 10.8065 42.5728C10.7803 42.4552 10.7803 42.3246 10.8065 42.1677C10.8326 42.024 10.8849 41.8672 10.9502 41.7365C11.107 41.4099 11.3684 41.2008 11.7081 41.1224C12.0479 41.044 12.4399 41.057 12.8842 41.1616C13.3284 41.2661 13.7858 41.436 14.2562 41.6712C14.5306 41.8149 14.8181 41.9717 15.0925 42.1547C15.3669 42.3376 15.6021 42.5336 15.7851 42.7427C15.968 42.9518 16.0856 43.1739 16.1248 43.4222C16.0987 43.6051 16.0333 43.775 15.9549 43.9318C15.7851 44.2716 15.5237 44.5068 15.184 44.5982L15.2101 44.6113Z" fill="#F8F7E5"/>
<path d="M10.8065 34.4973L18.4378 39.3583C18.4116 39.4498 18.3855 39.5412 18.3593 39.6458C18.2809 39.9986 18.2287 40.3253 18.2156 40.6389L18.686 40.8872L19.5485 39.5412L19.9666 38.8879L21.1165 37.0846L20.5024 36.6142C20.241 36.7449 19.9535 36.9278 19.6791 37.1761C19.6138 37.2284 19.5746 37.2806 19.5223 37.3198L11.4076 32.1583L10.3884 32.4458C10.1532 32.8509 9.9441 33.2821 9.76116 33.7525C9.57822 34.2099 9.44755 34.6672 9.34301 35.0984L10.0486 35.4251L10.7935 34.4973H10.8065Z" fill="#F8F7E5"/>
<path d="M14.2432 29.4011L21.4432 34.9024C21.4171 34.9939 21.3779 35.0854 21.3517 35.1768C21.2341 35.5296 21.1688 35.8432 21.1296 36.1569L21.5869 36.4443L22.2795 35.5296L23.0243 34.5627L24.318 32.8639L23.743 32.3413C23.4686 32.4458 23.1681 32.6026 22.8675 32.8247C22.8022 32.877 22.763 32.9162 22.6976 32.9554L15.0664 27.1144L14.0341 27.3104C13.7597 27.6893 13.5245 28.1075 13.3024 28.5518C13.0802 28.9961 12.9103 29.4273 12.7797 29.8585L13.4592 30.2374L14.2693 29.375L14.2432 29.4011Z" fill="#F8F7E5"/>
<path d="M24.4487 18.2548L26.1082 20.0842C25.8207 20.241 25.5332 20.4109 25.2719 20.6591C24.8015 21.0773 24.4617 21.5346 24.2396 22.0312C24.0174 22.5277 23.8868 23.0374 23.8737 23.56C23.8606 24.0827 23.9521 24.5923 24.135 25.0889C24.318 25.5854 24.6055 26.0428 24.9844 26.4479C25.4548 26.9706 26.0036 27.3495 26.6178 27.5978C27.232 27.8461 27.8592 27.9375 28.4995 27.8461C29.1267 27.7546 29.7147 27.4671 30.2374 26.9706L30.6948 24.8276C30.9169 24.9321 31.139 25.0105 31.3742 25.0366C31.6356 25.0628 31.8839 25.0628 32.106 25.0236C32.3281 24.9844 32.5111 24.8929 32.6418 24.7753L33.3866 22.7499L32.8116 22.3187C32.7202 22.4363 32.6287 22.5408 32.5503 22.6453C32.4719 22.7499 32.3935 22.8283 32.302 22.9067C32.2105 22.9851 32.1191 23.0243 32.0276 23.0243C31.9231 23.0243 31.8447 22.9851 31.7663 22.9067L25.6508 16.151H24.5924C24.2526 16.4907 23.939 16.8566 23.6385 17.2486C23.3379 17.6537 23.0897 18.0457 22.8937 18.4377L23.4947 18.9343L24.4487 18.2417V18.2548ZM29.4795 25.2849C29.2051 25.5332 28.9046 25.6638 28.5648 25.6769C28.2251 25.69 27.8853 25.6116 27.5325 25.4286C27.1797 25.2457 26.8661 24.9974 26.5655 24.6707C26.2388 24.3049 25.9775 23.8998 25.7946 23.4555C25.6116 23.0112 25.5332 22.58 25.5855 22.1619C25.8468 21.8744 26.1474 21.6392 26.4741 21.4824C26.6962 21.3778 26.9183 21.2994 27.1405 21.2471L30.0414 24.4486C30.0414 24.4486 30.0414 24.4747 30.0283 24.4878C29.8585 24.8406 29.6624 25.102 29.4664 25.2849H29.4795Z" fill="#F8F7E5"/>
<path d="M33.5564 21.6784C34.1967 21.979 34.8631 22.0966 35.5296 22.0443C36.196 21.979 36.8101 21.7568 37.372 21.3648C37.9208 20.9859 38.339 20.5154 38.6265 19.9405C38.9139 19.3655 39.0316 18.7383 38.9662 18.0588C38.914 17.3793 38.6395 16.6737 38.143 15.955C37.6464 15.2363 37.0845 14.7136 36.4573 14.4131C35.8301 14.1125 35.1898 13.9819 34.5495 14.0472C33.8962 14.1125 33.3081 14.3347 32.7463 14.7136C32.1974 15.0926 31.7662 15.5761 31.4657 16.151C31.1651 16.739 31.0345 17.3663 31.0737 18.0588C31.1129 18.7514 31.3873 19.457 31.8708 20.1626C32.3542 20.8552 32.9161 21.3648 33.5564 21.6653V21.6784ZM33.0599 16.1902C33.1513 16.0726 33.2689 15.9681 33.3996 15.8766C33.7002 15.6675 34.0268 15.6153 34.3666 15.7067C34.7063 15.7982 35.0461 16.0073 35.3728 16.3078C35.6994 16.6084 36.0261 16.9873 36.3266 17.4185C36.5096 17.6799 36.6664 17.9543 36.8232 18.2548C36.98 18.5554 37.0846 18.8298 37.1499 19.1042C37.2152 19.3786 37.2021 19.6269 37.1237 19.8621C37.0061 20.0058 36.8755 20.1234 36.7317 20.228C36.4181 20.4501 36.0784 20.5154 35.7386 20.437C35.3989 20.3586 35.0461 20.1757 34.7194 19.8751C34.3927 19.5877 34.0791 19.2218 33.7916 18.8036C33.5172 18.3986 33.2951 17.9935 33.1252 17.5884C32.9553 17.1833 32.8769 16.8305 32.89 16.5169C32.9292 16.3993 32.9945 16.2947 33.086 16.1771L33.0599 16.1902Z" fill="#F8F7E5"/>
<path d="M37.0192 12.9888L37.9862 12.9888L42.5728 17.7452C42.7819 17.6929 43.0171 17.6145 43.2784 17.4839C43.5397 17.3532 43.788 17.2356 44.0363 17.0788C44.2846 16.922 44.4806 16.7782 44.6374 16.6214L44.5328 13.8904L46.506 15.8766C46.702 15.8243 46.9241 15.7459 47.1855 15.6283C47.4468 15.5107 47.682 15.38 47.9303 15.2363C48.1786 15.0926 48.3746 14.9358 48.5445 14.779L47.7343 8.21924C47.7343 8.21924 47.8388 8.10164 47.8911 8.04937C48.0348 7.87949 48.1655 7.69655 48.2962 7.52668L47.9564 6.91252L47.1985 7.26534L45.4084 8.11471L44.5459 8.51979L44.8857 9.26461H45.735L47.0156 13.6813L46.8849 13.7466L45.9964 12.4922L43.0824 9.29075L41.1093 10.4668L43.1216 12.4922L43.3437 15.4323L43.2 15.4977L42.2461 14.2432L40.0378 11.7996C40.0378 11.7996 40.0639 11.7735 40.077 11.7474C40.2207 11.5775 40.3644 11.3946 40.4951 11.2247L40.1292 10.6105L39.306 11.0025L38.2998 11.473L36.6795 12.2439L37.0192 12.9888Z" fill="#F8F7E5"/>
<path d="M50.9227 7.26529L52.2948 12.3615C52.2163 12.4138 52.151 12.4399 52.0726 12.4922C51.7721 12.7012 51.5238 12.9103 51.3147 13.1324L51.4977 13.629L53.0396 13.2108L54.7644 12.7404L55.6138 12.5183L55.4701 11.7604C55.1826 11.6689 54.882 11.6167 54.5423 11.6036C54.5162 11.6036 54.49 11.6036 54.4508 11.6036L53.3271 7.43516C53.51 7.23915 53.6929 7.05621 53.8889 6.91247C54.1242 6.72953 54.3463 6.59886 54.5554 6.54659C54.869 6.45512 55.1434 6.49432 55.3917 6.69033C55.6399 6.88634 55.8359 7.23916 55.9666 7.74878L56.8944 11.1854C56.5938 11.3945 56.3456 11.6036 56.1365 11.8257L56.3194 12.3223L57.3909 12.0348L58.2926 11.7865L60.3833 11.2246L60.2396 10.4667C59.9521 10.3753 59.6124 10.3361 59.2203 10.323C59.155 10.323 59.1027 10.323 59.0374 10.323L58.1358 6.99088C58.0312 6.5858 57.9267 6.27219 57.8483 6.02391C57.7699 5.78871 57.6915 5.60576 57.6262 5.46203C57.5608 5.33135 57.4955 5.22681 57.4171 5.16148C57.208 4.96547 56.9859 4.82173 56.7245 4.73026C56.4632 4.63879 56.2149 4.58652 55.9536 4.56039C55.6922 4.53425 55.4701 4.56039 55.261 4.59959C54.9866 4.75639 54.673 4.9916 54.3332 5.30522C53.9935 5.61883 53.6407 5.98471 53.2879 6.41592C53.2225 6.49433 53.1572 6.59887 53.0918 6.67727L52.9089 5.97164L51.955 5.43589C51.5107 5.57962 51.0534 5.76257 50.6091 5.97164C50.1648 6.19379 49.7597 6.42899 49.3938 6.69033L49.6944 7.38289L50.8704 7.21302L50.9227 7.26529Z" fill="#F8F7E5"/>
<path d="M67.2566 10.8327C67.4657 10.9503 67.6356 11.0287 67.8054 11.081C68.0276 10.9111 68.2236 10.6628 68.4196 10.3753C68.6156 10.0748 68.7463 9.78731 68.8247 9.52597C68.7201 9.3953 68.5764 9.26463 68.4196 9.12089C68.2497 8.97715 68.0668 8.85955 67.8708 8.72888C67.6748 8.59821 67.4787 8.5198 67.2958 8.4806C67.0867 8.62434 66.8907 8.84649 66.6947 9.14703C66.4987 9.44757 66.3419 9.74811 66.2243 10.0487C66.3419 10.1924 66.4987 10.3231 66.6817 10.4537C66.8646 10.5844 67.0606 10.7151 67.2697 10.8327H67.2566Z" fill="#F8F7E5"/>
<path d="M76.3514 10.6628C76.8087 10.7804 77.2138 10.8457 77.5927 10.8849C78.2853 10.9503 78.9387 10.8849 79.5528 10.702C80.1539 10.5191 80.6635 10.2055 81.0555 9.76117C81.4476 9.31689 81.6828 8.76807 81.7481 8.10164C81.8004 7.47442 81.7089 6.95174 81.4606 6.52052C81.2123 6.0893 80.8726 5.71036 80.4544 5.39675C80.0363 5.08313 79.592 4.79565 79.1347 4.53431C78.7165 4.28603 78.3376 4.05083 77.9848 3.84175C77.6319 3.63268 77.3575 3.39748 77.1615 3.17533C76.9525 2.94013 76.8741 2.67878 76.9002 2.36517C76.9263 2.14303 77.0047 1.90781 77.1485 1.68567C77.2922 1.46353 77.4882 1.29366 77.7365 1.17605C78.3376 1.21525 78.9256 1.34593 79.4744 1.58114C79.6182 1.63341 79.7358 1.73795 79.8664 1.81635L80.1539 3.60654L81.4084 3.72415C81.5129 3.41054 81.5913 3.08386 81.6566 2.74412C81.722 2.40437 81.7742 2.06462 81.8265 1.75101C81.8657 1.42433 81.9049 1.13686 81.931 0.888583C81.6828 0.757912 81.3822 0.640299 81.0555 0.522695C80.7289 0.405091 80.376 0.313626 79.9971 0.222156C79.6182 0.130686 79.2523 0.0784183 78.8864 0.0392168C78.1416 -0.0261189 77.449 0.0392188 76.8087 0.235226C76.1684 0.431233 75.6588 0.744836 75.2668 1.17605C74.8748 1.60727 74.6396 2.12996 74.5873 2.75719C74.535 3.34521 74.6396 3.85482 74.9009 4.28604C75.1623 4.70419 75.502 5.07006 75.9202 5.38368C76.3383 5.69729 76.7695 5.98477 77.2007 6.24611C77.6319 6.49439 78.0109 6.72959 78.3376 6.93867C78.6643 7.14774 78.9256 7.38295 79.0955 7.63123C79.2784 7.8795 79.3568 8.16698 79.3307 8.48059C79.3045 8.7158 79.2261 8.93794 79.0693 9.17315C78.9125 9.40836 78.6773 9.5913 78.3637 9.72197C77.9456 9.68277 77.5143 9.60437 77.0701 9.46063C76.7564 9.36916 76.4559 9.22542 76.1684 9.05555L75.6065 6.808L74.4828 6.70346C74.3913 6.99094 74.3129 7.31762 74.2345 7.6835C74.1561 8.04938 74.0908 8.41526 74.0516 8.755C74.0123 9.09475 73.9862 9.36915 73.9731 9.57823C74.2737 9.8265 74.6396 10.0356 75.0577 10.2316C75.4759 10.4145 75.9071 10.5583 76.3644 10.6759L76.3514 10.6628Z" fill="#F8F7E5"/>
<path d="M83.7343 10.702C84.0349 11.1333 84.4269 11.4861 84.9104 11.7605C85.3938 12.0349 85.9296 12.2048 86.5438 12.257L88.9742 11.6167L88.8305 10.7805C88.5038 10.8458 88.1902 10.885 87.9027 10.898C87.6153 10.898 87.3409 10.885 87.0795 10.8327C86.596 10.7282 86.2171 10.5191 85.9296 10.2055C85.6421 9.89188 85.4592 9.51294 85.3808 9.05559C85.3024 8.59824 85.3154 8.11475 85.433 7.59206C85.5245 7.20005 85.6683 6.8211 85.8904 6.42909C86.1125 6.03707 86.4 5.7104 86.7659 5.44905C87.0926 5.65813 87.3931 5.91946 87.6414 6.25921C87.9027 6.59895 88.1249 6.99097 88.3078 7.43525L90.2287 6.6643C90.1503 6.24615 89.9935 5.89333 89.7713 5.57972C89.5361 5.26611 89.2617 5.01784 88.922 4.80876C88.5822 4.59969 88.2164 4.45595 87.8113 4.36448C87.1056 4.20767 86.4392 4.23381 85.7859 4.42982C85.1325 4.62582 84.5837 4.9917 84.1263 5.51438C83.669 6.03707 83.3423 6.69043 83.1724 7.48752C83.0418 8.10168 83.0156 8.67664 83.1202 9.22546C83.2247 9.77428 83.4207 10.2578 83.7343 10.702Z" fill="#F8F7E5"/>
<path d="M90.4508 12.0871C90.0849 12.0871 89.7582 12.1132 89.4577 12.1786L89.327 12.7012L90.3724 13.0671L91.9796 13.629L92.437 13.7858L92.5285 13.825L94.0573 14.3608L94.3709 13.6551C94.2403 13.5114 94.0835 13.3677 93.8874 13.2109C93.6914 13.0541 93.4954 12.9103 93.2864 12.7796C93.1687 12.7143 93.0773 12.649 92.9727 12.5967L94.0443 9.53898C94.0443 9.53898 94.0704 9.52592 94.0835 9.51285C94.4363 9.29071 94.7629 9.12084 95.0766 8.99017C95.3902 8.85949 95.7038 8.76802 96.0043 8.70269L95.6776 10.4798L96.8668 10.898C97.0105 10.715 97.1542 10.506 97.311 10.2708C97.4678 10.0355 97.6116 9.78726 97.7423 9.52591C97.8729 9.26457 97.9905 9.0163 98.0951 8.76803C98.1996 8.51975 98.2911 8.31068 98.3433 8.11467C98.1735 7.84026 97.9252 7.63118 97.6116 7.46131C97.298 7.30451 96.9321 7.2261 96.5401 7.23916L94.4885 8.31068L94.8805 7.19996L94.3971 6.233C93.9528 6.10233 93.4824 5.99779 92.9858 5.91939C92.5023 5.84099 92.0319 5.81485 91.5876 5.82792L91.4439 6.57275L92.5023 7.09543L90.7513 12.074C90.6599 12.074 90.5945 12.074 90.49 12.074L90.4508 12.0871Z" fill="#F8F7E5"/>
<path d="M97.2718 13.9034C97.3241 14.6221 97.5332 15.2493 97.9121 15.7982C98.2911 16.347 98.7876 16.7782 99.3887 17.0787C99.9898 17.3793 100.604 17.51 101.244 17.4838C101.885 17.4577 102.486 17.2486 103.061 16.8697C103.636 16.4907 104.106 15.9027 104.498 15.1317C104.89 14.3477 105.073 13.6029 105.034 12.9103C104.995 12.2178 104.785 11.6036 104.42 11.0678C104.054 10.5321 103.57 10.1139 102.969 9.8134C102.368 9.51285 101.741 9.36911 101.087 9.39525C100.434 9.40832 99.8069 9.60433 99.2319 9.98328C98.6439 10.3622 98.1604 10.9241 97.7815 11.6951C97.4025 12.453 97.2326 13.1847 97.2849 13.9034H97.2718ZM99.3887 14.0472C99.4802 13.6159 99.637 13.1717 99.8722 12.7143C100.094 12.27 100.343 11.878 100.604 11.5383C100.878 11.1985 101.153 10.9502 101.427 10.8065C101.545 10.7804 101.675 10.7804 101.832 10.8065C101.976 10.8326 102.133 10.8849 102.263 10.9502C102.59 11.107 102.799 11.3684 102.878 11.7081C102.956 12.0479 102.943 12.4399 102.838 12.8842C102.734 13.3285 102.564 13.7858 102.329 14.2562C102.185 14.5306 102.028 14.8181 101.845 15.0925C101.662 15.3669 101.466 15.6021 101.257 15.7851C101.048 15.968 100.826 16.0856 100.578 16.1248C100.395 16.0987 100.225 16.0334 100.068 15.955C99.7154 15.7851 99.4933 15.5237 99.4018 15.184C99.2973 14.8442 99.2973 14.4522 99.4018 14.021L99.3887 14.0472Z" fill="#F8F7E5"/>
<path d="M104.642 18.4378C104.55 18.4116 104.459 18.3855 104.354 18.3593C104.001 18.2809 103.675 18.2287 103.361 18.2156L103.113 18.686L104.459 19.5485L105.112 19.9666L106.915 21.1165L107.386 20.5024C107.255 20.241 107.072 19.9535 106.824 19.6791C106.772 19.6138 106.719 19.5746 106.68 19.5223L111.842 11.4076L111.554 10.3884C111.149 10.1532 110.718 9.9441 110.248 9.76116C109.79 9.57822 109.333 9.44755 108.902 9.34301L108.588 10.0486L109.516 10.7935L104.655 18.4247L104.642 18.4378Z" fill="#F8F7E5"/>
<path d="M109.111 21.4301C109.019 21.404 108.928 21.3648 108.836 21.3387C108.484 21.221 108.17 21.1557 107.856 21.1165L107.569 21.5739L108.484 22.2664L109.45 23.0113L111.149 24.3049L111.672 23.7299C111.567 23.4555 111.411 23.155 111.188 22.8544C111.136 22.7891 111.097 22.7499 111.058 22.6846L116.899 15.0534L116.703 14.021C116.311 13.7466 115.906 13.5114 115.461 13.2893C115.017 13.0671 114.586 12.8973 114.155 12.7666L113.776 13.4461L114.638 14.2563L109.137 21.4563L109.111 21.4301Z" fill="#F8F7E5"/>
<path d="M116.154 28.4734C116.245 29.1006 116.533 29.6886 117.029 30.2113L119.159 30.6686C119.055 30.8908 118.976 31.1129 118.95 31.3481C118.924 31.6095 118.924 31.8577 118.963 32.0799C119.003 32.302 119.094 32.485 119.212 32.6156L121.237 33.3605L121.668 32.7855C121.551 32.694 121.446 32.6026 121.342 32.5242C121.237 32.4458 121.159 32.3674 121.08 32.2759C121.002 32.1844 120.963 32.093 120.963 32.0015C120.963 31.897 121.002 31.8185 121.08 31.7401L127.836 25.6247V24.5663C127.496 24.2265 127.13 23.9129 126.738 23.6124C126.346 23.3118 125.941 23.0636 125.549 22.8676L125.053 23.4686L125.745 24.4225L123.916 26.0821C123.759 25.7946 123.589 25.5071 123.341 25.2458C122.923 24.7754 122.465 24.4356 121.969 24.2135C121.472 23.9913 120.963 23.8607 120.44 23.8476C119.917 23.8345 119.408 23.926 118.911 24.1089C118.415 24.2919 117.957 24.5793 117.552 24.9583C117.029 25.4287 116.65 25.9775 116.389 26.5917C116.141 27.2058 116.049 27.8331 116.141 28.4734H116.154ZM118.571 27.5325C118.754 27.1797 119.003 26.8661 119.329 26.5655C119.695 26.2389 120.1 25.9775 120.544 25.7946C120.989 25.6117 121.42 25.5332 121.838 25.5855C122.126 25.8469 122.361 26.1474 122.518 26.4741C122.622 26.6962 122.701 26.9184 122.753 27.1405L119.551 30.0414C119.551 30.0414 119.525 30.0414 119.512 30.0283C119.159 29.8585 118.898 29.6625 118.715 29.4665C118.467 29.192 118.336 28.8915 118.323 28.5518C118.31 28.212 118.388 27.8723 118.571 27.5195V27.5325Z" fill="#F8F7E5"/>
<path d="M123.837 31.8577C123.145 32.3412 122.635 32.9031 122.335 33.5434C122.034 34.1836 121.903 34.8501 121.969 35.5165C122.034 36.1829 122.256 36.7971 122.648 37.359C123.027 37.9078 123.498 38.3259 124.073 38.6134C124.648 38.9009 125.275 39.0185 125.954 38.9532C126.634 38.9009 127.339 38.6265 128.058 38.1299C128.777 37.6334 129.299 37.0715 129.6 36.4443C129.901 35.817 130.031 35.1768 129.966 34.5365C129.901 33.8831 129.678 33.2951 129.299 32.7332C128.921 32.1844 128.437 31.7532 127.862 31.4526C127.287 31.1521 126.647 31.0214 125.954 31.0606C125.262 31.0998 124.556 31.3742 123.85 31.8577H123.837ZM127.47 32.8639C127.588 32.9031 127.705 32.9684 127.823 33.0599C127.94 33.1513 128.045 33.2689 128.136 33.3996C128.346 33.7002 128.398 34.0268 128.306 34.3666C128.215 34.7063 128.006 35.0461 127.705 35.3728C127.405 35.7125 127.026 36.0261 126.595 36.3267C126.333 36.5096 126.059 36.6664 125.758 36.8232C125.458 36.98 125.183 37.0846 124.909 37.1499C124.634 37.2152 124.386 37.2022 124.151 37.1238C124.007 37.0062 123.89 36.8755 123.785 36.7317C123.563 36.4181 123.498 36.0784 123.576 35.7386C123.654 35.3989 123.837 35.0592 124.138 34.7194C124.425 34.3927 124.791 34.0791 125.209 33.7916C125.615 33.5172 126.02 33.2951 126.425 33.1252C126.83 32.9553 127.183 32.8769 127.496 32.89L127.47 32.8639Z" fill="#F8F7E5"/>
<path d="M126.255 42.5598C126.307 42.7689 126.385 43.0041 126.516 43.2654C126.647 43.5267 126.764 43.775 126.921 44.0233C127.078 44.2716 127.222 44.4676 127.379 44.6244L130.11 44.5199L128.123 46.493C128.176 46.689 128.254 46.9111 128.372 47.1725C128.489 47.4208 128.62 47.669 128.764 47.9173C128.907 48.1656 129.064 48.3616 129.234 48.5315L135.794 47.7213C135.794 47.7213 135.911 47.8258 135.964 47.8781C136.134 48.0218 136.303 48.1525 136.486 48.2832L137.101 47.9434L136.931 47.5906L136.735 47.1855L136.369 46.4277L136.225 46.1271L135.48 44.559L134.735 44.8988V45.7482L130.319 47.0287L130.253 46.8981L131.508 46.0095L134.709 43.0955L133.533 41.1224L131.521 43.1347L128.581 43.3569L128.515 43.2131L129.757 42.2592L132.2 40.0509C132.2 40.0509 132.227 40.077 132.253 40.0901C132.423 40.2338 132.605 40.3776 132.775 40.5082L133.389 40.1423L132.997 39.3191V39.293L131.769 36.7057L131.024 37.0454V38.0124L126.268 42.599L126.255 42.5598Z" fill="#F8F7E5"/>
<path d="M136.735 50.9097L131.638 52.2817C131.586 52.2033 131.56 52.138 131.508 52.0596C131.299 51.759 131.09 51.5107 130.868 51.3017L130.371 51.4846L130.658 52.5431L131.26 54.7514L131.482 55.6008L132.24 55.457C132.331 55.1695 132.383 54.869 132.409 54.5293C132.409 54.5031 132.409 54.477 132.409 54.4378L136.578 53.314C136.774 53.4969 136.957 53.6799 137.101 53.8759C137.283 54.1111 137.414 54.3332 137.466 54.5423C137.558 54.8559 137.506 55.1303 137.323 55.3786C137.14 55.6269 136.774 55.8229 136.264 55.9536L132.828 56.8813C132.619 56.5808 132.409 56.3325 132.187 56.1234L131.691 56.3064L132.109 57.8483L132.226 58.2795L132.788 60.3703L133.546 60.2265C133.638 59.9391 133.677 59.6124 133.69 59.2073C133.69 59.142 133.69 59.0897 133.69 59.0244L137.022 58.1227C137.427 58.0182 137.741 57.9136 137.989 57.8352C138.237 57.7568 138.407 57.6784 138.551 57.6262C138.682 57.5608 138.786 57.4955 138.852 57.4171C139.048 57.208 139.191 56.9859 139.283 56.7245C139.374 56.4632 139.426 56.2149 139.453 55.9536C139.466 55.7053 139.453 55.4701 139.413 55.261C139.257 54.9866 139.021 54.673 138.708 54.3332C138.394 53.9935 138.028 53.6407 137.597 53.2879C137.519 53.2225 137.414 53.1572 137.336 53.0919L138.041 52.9089L138.577 51.955C138.433 51.5107 138.25 51.0534 138.041 50.6091C137.819 50.1648 137.584 49.7597 137.323 49.3939L136.63 49.6944L136.8 50.8705L136.735 50.9097Z" fill="#F8F7E5"/>
<path d="M133.638 68.4326C133.938 68.6286 134.226 68.7593 134.487 68.8377C134.618 68.7332 134.748 68.6025 134.892 68.4326C135.036 68.2627 135.154 68.0798 135.284 67.8838C135.402 67.6878 135.493 67.4918 135.532 67.3088C135.389 67.0998 135.167 66.9038 134.866 66.7077C134.566 66.5117 134.265 66.3549 133.964 66.2243C133.834 66.3419 133.69 66.4987 133.559 66.6816C133.429 66.8646 133.298 67.0606 133.18 67.2696C133.063 67.4787 132.984 67.6617 132.932 67.8185C133.102 68.0406 133.337 68.2366 133.638 68.4326Z" fill="#F8F7E5"/>
<path d="M138.642 75.9724C138.329 76.3905 138.041 76.8218 137.78 77.253C137.532 77.6842 137.297 78.0631 137.087 78.3898C136.878 78.7165 136.643 78.9778 136.395 79.1477C136.147 79.3307 135.859 79.4091 135.546 79.3829C135.31 79.3568 135.088 79.2784 134.853 79.1216C134.618 78.9648 134.435 78.7296 134.304 78.416C134.343 77.9978 134.422 77.5666 134.566 77.1223C134.657 76.8087 134.801 76.5082 134.971 76.2207L137.218 75.6588L137.323 74.535C137.035 74.4435 136.709 74.3651 136.343 74.2867C135.977 74.2083 135.611 74.143 135.271 74.1038C134.931 74.0646 134.657 74.0385 134.448 74.0254C134.2 74.3259 133.977 74.6918 133.795 75.11C133.612 75.5281 133.455 75.9593 133.35 76.4167C133.233 76.874 133.167 77.2791 133.128 77.6581C133.063 78.3506 133.128 79.004 133.311 79.6051C133.494 80.2062 133.808 80.7158 134.239 81.1209C134.67 81.5259 135.232 81.7481 135.898 81.8134C136.526 81.8657 137.048 81.7742 137.479 81.5259C137.911 81.2777 138.29 80.9379 138.603 80.5198C138.917 80.1016 139.204 79.6573 139.466 79.2C139.714 78.7818 139.949 78.4029 140.158 78.0501C140.367 77.6973 140.603 77.4229 140.838 77.2268C141.073 77.0308 141.334 76.9394 141.648 76.9655C141.87 76.9916 142.105 77.07 142.327 77.2138C142.55 77.3575 142.719 77.5535 142.837 77.8018C142.798 78.4029 142.667 78.9909 142.432 79.5397C142.367 79.6835 142.275 79.8011 142.197 79.9317L140.407 80.2192L140.289 81.4737C140.603 81.5782 140.929 81.6566 141.269 81.7219C141.609 81.7873 141.948 81.8526 142.275 81.8918C142.602 81.931 142.889 81.9702 143.138 81.9964C143.268 81.7481 143.386 81.4606 143.503 81.1209C143.621 80.7942 143.713 80.4414 143.804 80.0624C143.895 79.6835 143.948 79.3176 143.987 78.9517C144.052 78.2069 143.987 77.5143 143.791 76.874C143.595 76.2337 143.281 75.7241 142.85 75.3321C142.419 74.9401 141.896 74.7049 141.269 74.6526C140.681 74.6004 140.171 74.7049 139.74 74.9662C139.309 75.2276 138.956 75.5673 138.642 75.9855V75.9724Z" fill="#F8F7E5"/>
<path d="M138.486 84.1263C137.963 83.669 137.31 83.3423 136.513 83.1724C135.898 83.0418 135.323 83.0156 134.775 83.1202C134.226 83.2247 133.742 83.4207 133.298 83.7343C132.854 84.0479 132.514 84.4269 132.24 84.9104C131.965 85.3939 131.795 85.9296 131.743 86.5438L132.383 88.9743L133.22 88.8305C133.154 88.5038 133.115 88.1902 133.102 87.9027C133.102 87.6153 133.115 87.3409 133.167 87.0795C133.272 86.596 133.481 86.2171 133.795 85.9296C134.108 85.6421 134.487 85.4592 134.931 85.3808C135.389 85.3024 135.872 85.3155 136.395 85.4331C136.787 85.5245 137.166 85.6683 137.558 85.8904C137.937 86.0995 138.277 86.4 138.538 86.7659C138.342 87.0926 138.068 87.3931 137.728 87.6414C137.388 87.9027 136.996 88.1249 136.552 88.3078L137.323 90.2287C137.741 90.1503 138.094 89.9935 138.407 89.7583C138.721 89.5231 138.969 89.2487 139.178 88.9089C139.387 88.5692 139.531 88.2033 139.623 87.7982C139.779 87.0926 139.753 86.4262 139.557 85.7728C139.361 85.1194 138.995 84.5706 138.473 84.1133L138.486 84.1263Z" fill="#F8F7E5"/>
<path d="M136.878 92.4632L131.9 90.7122C131.9 90.6207 131.9 90.5554 131.9 90.4508C131.9 90.0849 131.874 89.7583 131.808 89.4577L131.286 89.327L130.92 90.3724L130.763 90.8298L130.358 91.9797L129.626 94.0443L130.332 94.3579C130.476 94.2272 130.619 94.0704 130.776 93.8744C130.933 93.6784 131.077 93.4824 131.207 93.2733C131.273 93.1557 131.338 93.0642 131.39 92.9597L134.448 94.0312C134.448 94.0312 134.461 94.0574 134.474 94.0704C134.696 94.4232 134.866 94.7499 134.997 95.0635C135.127 95.3771 135.219 95.6907 135.284 95.9913L133.507 95.6646L133.089 96.8537C133.272 96.9975 133.481 97.1412 133.716 97.298C133.951 97.4548 134.2 97.5985 134.461 97.7292C134.722 97.8599 134.971 97.9775 135.219 98.082C135.467 98.1866 135.676 98.278 135.872 98.3303C136.147 98.1604 136.356 97.9122 136.526 97.5985C136.682 97.2849 136.761 96.9191 136.748 96.527L135.676 94.4755L136.787 94.8675L137.754 94.384C137.885 93.9397 137.989 93.4693 138.068 92.9728C138.146 92.4893 138.172 92.0189 138.159 91.5746L137.414 91.4309L136.891 92.4893L136.878 92.4632Z" fill="#F8F7E5"/>
<path d="M128.868 104.485C129.652 104.877 130.397 105.06 131.09 105.021C131.782 104.981 132.396 104.772 132.932 104.407C133.468 104.041 133.886 103.557 134.187 102.956C134.487 102.355 134.631 101.728 134.605 101.074C134.592 100.421 134.396 99.7938 134.017 99.2189C133.638 98.6439 133.076 98.1474 132.305 97.7684C131.547 97.3895 130.815 97.2196 130.097 97.2719C129.378 97.3241 128.751 97.5332 128.202 97.9122C127.653 98.2911 127.222 98.7877 126.921 99.3887C126.621 99.9898 126.49 100.604 126.516 101.244C126.542 101.885 126.751 102.486 127.13 103.061C127.509 103.636 128.084 104.106 128.868 104.498V104.485ZM128.019 100.055C128.189 99.7023 128.45 99.4802 128.79 99.3887C129.13 99.2842 129.522 99.2842 129.953 99.3887C130.384 99.4933 130.828 99.637 131.286 99.8722C131.73 100.094 132.122 100.343 132.462 100.604C132.801 100.878 133.05 101.153 133.193 101.427C133.22 101.545 133.22 101.675 133.193 101.832C133.167 101.976 133.115 102.133 133.05 102.264C132.893 102.59 132.632 102.799 132.292 102.878C131.952 102.956 131.56 102.943 131.116 102.838C130.672 102.734 130.214 102.564 129.744 102.329C129.469 102.185 129.182 102.028 128.907 101.845C128.633 101.662 128.398 101.466 128.215 101.257C128.032 101.048 127.914 100.826 127.875 100.578C127.901 100.395 127.967 100.225 128.045 100.068L128.019 100.055Z" fill="#F8F7E5"/>
<path d="M133.18 109.542L125.549 104.668C125.575 104.576 125.601 104.485 125.628 104.38C125.706 104.028 125.758 103.701 125.771 103.387L125.301 103.139L124.687 104.106L123.458 106.04L122.883 106.942L123.498 107.412C123.759 107.281 124.046 107.098 124.334 106.85C124.399 106.798 124.438 106.746 124.491 106.706L132.592 111.881L133.612 111.593C133.847 111.188 134.056 110.757 134.239 110.287C134.422 109.829 134.552 109.372 134.657 108.941L133.951 108.614L133.207 109.542H133.18Z" fill="#F8F7E5"/>
<path d="M129.77 114.599L122.57 109.098C122.596 109.006 122.635 108.915 122.674 108.823C122.792 108.47 122.857 108.157 122.897 107.843L122.439 107.556L121.747 108.47L120.362 110.287L119.708 111.136L120.283 111.659C120.558 111.554 120.858 111.397 121.159 111.175C121.224 111.123 121.263 111.084 121.328 111.045L128.96 116.886L129.992 116.69C130.266 116.298 130.502 115.893 130.724 115.448C130.946 115.004 131.116 114.573 131.246 114.142L130.567 113.763L129.757 114.625L129.77 114.599Z" fill="#F8F7E5"/>
<path d="M119.525 125.771L117.866 123.942C118.153 123.785 118.441 123.615 118.702 123.367C119.172 122.949 119.512 122.491 119.747 121.995C119.97 121.498 120.1 120.989 120.113 120.466C120.126 119.943 120.035 119.434 119.852 118.937C119.656 118.441 119.381 117.983 119.016 117.578C118.545 117.056 118.009 116.677 117.382 116.415C116.768 116.167 116.141 116.075 115.514 116.167C114.886 116.258 114.298 116.546 113.776 117.029L113.318 119.172C113.096 119.068 112.874 118.989 112.639 118.963C112.377 118.937 112.129 118.937 111.907 118.976C111.685 119.016 111.502 119.107 111.371 119.225L110.626 121.25L111.201 121.681C111.293 121.564 111.384 121.459 111.463 121.355C111.541 121.25 111.62 121.172 111.711 121.093C111.803 121.015 111.894 120.976 111.985 120.976C112.09 120.976 112.168 121.015 112.234 121.093L118.349 127.849H119.408C119.747 127.509 120.061 127.143 120.362 126.751C120.662 126.359 120.91 125.954 121.106 125.562L120.505 125.066L119.551 125.758L119.525 125.771ZM114.494 118.741C114.769 118.493 115.069 118.362 115.409 118.349C115.749 118.336 116.089 118.415 116.441 118.597C116.794 118.78 117.108 119.029 117.408 119.355C117.735 119.721 117.996 120.126 118.179 120.571C118.362 121.015 118.441 121.446 118.388 121.864C118.127 122.152 117.826 122.387 117.5 122.544C117.278 122.648 117.056 122.727 116.833 122.779L113.932 119.564C113.932 119.564 113.932 119.538 113.946 119.525C114.115 119.172 114.311 118.911 114.507 118.728L114.494 118.741Z" fill="#F8F7E5"/>
<path d="M110.417 122.348C109.777 122.047 109.111 121.917 108.444 121.982C107.778 122.047 107.164 122.269 106.602 122.648C106.053 123.027 105.635 123.498 105.347 124.073C105.06 124.648 104.942 125.275 105.008 125.954C105.06 126.634 105.334 127.339 105.831 128.058C106.327 128.777 106.889 129.299 107.517 129.6C108.144 129.901 108.784 130.031 109.424 129.966C110.078 129.901 110.666 129.678 111.228 129.299C111.776 128.921 112.208 128.437 112.508 127.862C112.809 127.274 112.939 126.647 112.9 125.954C112.861 125.262 112.587 124.556 112.103 123.85C111.62 123.158 111.058 122.648 110.417 122.348ZM110.901 127.836C110.809 127.954 110.692 128.058 110.561 128.15C110.261 128.359 109.934 128.411 109.594 128.319C109.254 128.228 108.915 128.019 108.588 127.718C108.261 127.418 107.935 127.039 107.634 126.608C107.451 126.346 107.294 126.072 107.138 125.771C106.981 125.471 106.876 125.196 106.811 124.922C106.746 124.648 106.759 124.399 106.837 124.164C106.955 124.02 107.085 123.903 107.229 123.798C107.543 123.576 107.882 123.511 108.222 123.589C108.562 123.668 108.902 123.85 109.241 124.151C109.581 124.452 109.882 124.804 110.169 125.222C110.444 125.628 110.666 126.033 110.836 126.438C111.005 126.843 111.084 127.196 111.071 127.509C111.032 127.627 110.966 127.744 110.875 127.862L110.901 127.836Z" fill="#F8F7E5"/>
<path d="M107.281 131.782L106.942 131.037H105.975L101.401 126.281C101.192 126.333 100.957 126.412 100.695 126.529C100.434 126.647 100.186 126.777 99.9375 126.934C99.6893 127.078 99.4933 127.235 99.3365 127.392L99.441 130.123L97.4679 128.136C97.2718 128.189 97.0497 128.267 96.7884 128.385C96.527 128.502 96.2918 128.633 96.0435 128.777C95.7953 128.921 95.5993 129.077 95.4294 129.234L96.2265 135.807C96.2265 135.807 96.1219 135.925 96.0697 135.977C95.9259 136.147 95.7953 136.317 95.6646 136.499L96.0043 137.114L97.8337 136.251L98.5394 135.911L99.4018 135.506L99.062 134.762H98.2127L96.9452 130.345L97.0758 130.279L97.9644 131.534L100.865 134.735L102.838 133.559L100.826 131.534L100.604 128.594L100.748 128.528L101.702 129.783L103.91 132.227C103.91 132.227 103.884 132.253 103.871 132.279C103.727 132.449 103.583 132.632 103.453 132.801L103.805 133.416L104.629 133.024L104.851 132.919L107.255 131.782H107.281Z" fill="#F8F7E5"/>
<path d="M93.0643 136.735L91.6922 131.625C91.7706 131.573 91.8229 131.547 91.9143 131.495C92.2149 131.286 92.4632 131.077 92.6722 130.854L92.4893 130.358L90.9474 130.776L89.4055 131.194L88.3731 131.469L88.5169 132.226C88.8044 132.318 89.1049 132.37 89.4447 132.396C89.4708 132.396 89.51 132.396 89.5361 132.396L90.6599 136.565C90.477 136.761 90.294 136.944 90.098 137.087C89.8628 137.27 89.6407 137.401 89.4316 137.453C89.118 137.545 88.8436 137.493 88.5953 137.31C88.347 137.114 88.151 136.761 88.0203 136.251L87.0926 132.815C87.3931 132.605 87.6414 132.396 87.8505 132.174L87.6675 131.678L86.1256 132.096L84.6229 132.501L83.6036 132.775L83.7474 133.533C84.0348 133.625 84.3615 133.664 84.7535 133.677C84.8189 133.677 84.8711 133.677 84.9365 133.677L85.825 137.009C85.9296 137.414 86.0341 137.728 86.1125 137.976C86.1909 138.211 86.2693 138.394 86.3216 138.538C86.3869 138.669 86.4523 138.773 86.5307 138.838C86.7398 139.034 86.9619 139.178 87.2232 139.27C87.4846 139.361 87.7329 139.413 87.9942 139.44C88.2425 139.453 88.4777 139.44 88.6868 139.4C88.9742 139.244 89.2748 139.008 89.6145 138.695C89.9543 138.381 90.3071 138.015 90.6599 137.584C90.7252 137.506 90.7906 137.401 90.8559 137.323L91.0388 138.028L91.9927 138.564C92.437 138.42 92.8944 138.237 93.3387 138.028C93.7829 137.806 94.188 137.571 94.5539 137.31L94.2534 136.617L93.0773 136.787L93.0643 136.735Z" fill="#F8F7E5"/>
<path d="M76.7042 133.167C76.4951 133.05 76.3122 132.971 76.1554 132.919C75.9332 133.089 75.7372 133.324 75.5412 133.625C75.3452 133.925 75.2145 134.213 75.1361 134.474C75.2407 134.605 75.3844 134.735 75.5412 134.879C75.7111 135.023 75.894 135.14 76.09 135.271C76.2861 135.389 76.4821 135.48 76.665 135.519C76.8741 135.376 77.0701 135.154 77.2661 134.853C77.4621 134.552 77.6189 134.252 77.7365 133.951C77.6189 133.821 77.4621 133.677 77.2792 133.546C77.0962 133.416 76.8871 133.285 76.6911 133.167H76.7042Z" fill="#F8F7E5"/>
</g>
<defs>
<clipPath id="clip0_12_101">
<rect width="88" height="88" fill="white" transform="matrix(-1 0 0 -1 116 116)"/>
</clipPath>
<clipPath id="clip1_12_101">
<rect width="144" height="144" fill="white" transform="matrix(-1 0 0 -1 144 144)"/>
</clipPath>
</defs>
</svg>
