<svg width="121" height="120" viewBox="0 0 121 120" fill="none" xmlns="http://www.w3.org/2000/svg">
<g clip-path="url(#clip0_2391_2334)">
<path d="M1 68.1027L3.28828 77.8795L37.074 71.0491L10.4896 93.2143L16.7487 101.049L44.2754 80.2902L29.94 111.696L39.0258 116.049L54.7745 85.5134L55.5822 120L65.6775 120L66.4851 85.6473L82.3012 116.384L91.387 112.031L77.1189 80.7589L104.78 101.652L111.039 93.75L84.5895 71.7188L118.577 78.6161L120.865 68.8393L87.3489 60.4018L121 51.8973L118.779 42.1205L84.926 48.9509L111.51 26.7857L105.251 18.9509L77.7246 39.7098L92.06 8.30357L82.9742 3.95089L67.2255 34.5536L66.4178 -7.62939e-06L56.3225 -7.62939e-06L55.5149 34.3527L39.7661 3.61607L30.613 7.96875L44.8811 39.2411L17.2199 18.3482L10.9607 26.25L37.4105 48.2812L3.42289 41.3839L1.20191 51.1607L34.6512 59.5982L1 68.1027Z" fill="#FF834F"/>
</g>
<g clip-path="url(#clip1_2391_2334)">
<g clip-path="url(#clip2_2391_2334)">
<path d="M74.84 53.15L61.68 46.41C61.16 46.14 60.58 46 60 46C59.42 46 58.83 46.14 58.33 46.41L45.16 53.15C44.45 53.52 44 54.24 44 55.04C44 55.84 44.44 56.57 45.16 56.93L47.98 58.38V58.99C47.98 63.65 51.77 67.44 56.43 67.44H63.55C63.75 67.44 63.94 67.42 64.13 67.41C64.17 67.8 64.27 68.18 64.45 68.52L64.03 70.47C63.83 71.39 64.06 72.33 64.65 73.05C65.24 73.78 66.11 74.19 67.05 74.19C67.99 74.19 68.86 73.77 69.45 73.04C70.04 72.31 70.26 71.37 70.06 70.46L69.65 68.52C69.65 68.52 69.92 67.86 69.94 67.79C70.11 66.85 69.93 65.9 69.29 65.17C69.37 65.1 69.45 65.03 69.53 64.95C71.12 63.35 72 61.23 71.99 58.98V58.38L74.85 56.92C75.56 56.55 76 55.83 76 55.03C76 54.23 75.56 53.5 74.84 53.14V53.15Z" fill="white"/>
<path d="M63.5466 66.4481H56.4266C52.3066 66.4481 48.9766 63.1181 48.9766 58.9981V54.3281H70.9866V58.9981C70.9966 63.1181 67.6666 66.4481 63.5466 66.4481Z" fill="#533566"/>
<path d="M61.2175 47.3L74.3875 54.04C75.1975 54.46 75.1975 55.63 74.3875 56.05L61.2175 62.79C60.4475 63.19 59.5475 63.19 58.7775 62.79L45.6075 56.05C44.7975 55.63 44.7975 54.46 45.6075 54.04L58.7775 47.3C59.5375 46.9 60.4475 46.9 61.2175 47.3Z" fill="#321B41"/>
<path d="M59.0977 54.5598C59.2977 54.1198 59.8277 53.9498 60.2577 54.1598L67.4477 57.8498C67.7377 57.9998 67.9077 58.2898 67.9077 58.6098V65.3398C68.5577 65.6598 69.0077 66.3298 69.0077 67.0998C69.0077 67.2698 68.9877 67.4298 68.9477 67.5898V67.6098C68.9477 67.6098 68.9277 67.7098 68.9077 67.7498C68.9077 67.7598 68.8977 67.7698 68.8977 67.7798C68.8877 67.8198 68.8677 67.8698 68.8477 67.9098C68.8477 67.9198 68.8377 67.9298 68.8377 67.9298C68.7877 68.0498 68.7077 68.1698 68.6377 68.2598C68.6277 68.2798 68.6177 68.2898 68.5977 68.3098L69.0977 70.6698C69.3777 71.9698 68.3877 73.1898 67.0577 73.1898C65.7277 73.1898 64.7377 71.9698 65.0177 70.6698L65.5177 68.3098C65.2477 67.9798 65.0877 67.5598 65.0877 67.0998C65.0877 66.8298 65.1377 66.5698 65.2377 66.3498C65.2377 66.3398 65.2477 66.3298 65.2577 66.3198C65.2677 66.2898 65.2877 66.2498 65.3077 66.2098C65.3277 66.1698 65.3477 66.1198 65.3877 66.0798C65.3977 66.0698 65.3977 66.0598 65.4077 66.0498C65.5977 65.7498 65.8777 65.4998 66.1977 65.3398V59.1198L59.4977 55.6898C59.0777 55.4798 58.8877 54.9598 59.0877 54.5398L59.0977 54.5598Z" fill="#FFB02E"/>
</g>
</g>
<defs>
<clipPath id="clip0_2391_2334">
<rect width="120" height="120" fill="white" transform="matrix(-1 0 0 -1 121 120)"/>
</clipPath>
<clipPath id="clip1_2391_2334">
<rect width="40" height="40" fill="white" transform="translate(40 40)"/>
</clipPath>
<clipPath id="clip2_2391_2334">
<rect width="32" height="28.2" fill="white" transform="translate(44 46)"/>
</clipPath>
</defs>
</svg>
